<svg width="20.000000" height="20.000000" viewBox="0 0 20 20" fill="none" xmlns="http://www.w3.org/2000/svg" xmlns:xlink="http://www.w3.org/1999/xlink">
	<desc>
			Created with Pixso.
	</desc>
	<defs/>
	<circle id="Ellipse 41" cx="10.000000" cy="10.000000" r="10.000000" fill="#12141D" fill-opacity="1.000000"/>
	<path id="Vector" d="M15.043 6.23792C14.9678 6.16248 14.8789 6.10266 14.7812 6.06189C14.6836 6.021 14.5781 6 14.4717 6C14.3662 6 14.2607 6.021 14.1631 6.06189C14.0645 6.10266 13.9756 6.16248 13.9014 6.23792L7.91016 12.2371L5.39258 9.71191C5.31543 9.63696 5.22363 9.578 5.12305 9.53845C5.02246 9.4989 4.91504 9.47949 4.80762 9.48132C4.69922 9.48315 4.59277 9.50623 4.49414 9.54932C4.39551 9.59229 4.30566 9.65442 4.23047 9.73206C4.15527 9.80969 4.09668 9.90125 4.05762 10.0017C4.01758 10.1021 3.99805 10.2094 4 10.3173C4.00195 10.4252 4.02539 10.5316 4.06836 10.6306C4.11133 10.7296 4.17285 10.8191 4.25098 10.894L7.33887 13.9822C7.41406 14.0575 7.50293 14.1173 7.60059 14.1582C7.69824 14.199 7.80371 14.22 7.91016 14.22C8.01562 14.22 8.12109 14.199 8.21875 14.1582C8.31738 14.1173 8.40625 14.0575 8.48047 13.9822L15.043 7.42004C15.125 7.34473 15.1895 7.2533 15.2344 7.15161C15.2793 7.0498 15.3018 6.94006 15.3018 6.82898C15.3018 6.7179 15.2793 6.60803 15.2344 6.50635C15.1895 6.40454 15.125 6.31323 15.043 6.23792Z" fill="#D1EDF5" fill-opacity="1.000000" fill-rule="nonzero"/>
</svg>
