<svg width="122.882812" height="25.870117" viewBox="0 0 122.883 25.8701" fill="none" xmlns="http://www.w3.org/2000/svg" xmlns:xlink="http://www.w3.org/1999/xlink">
	<desc>
			Created with Pixso.
	</desc>
	<defs>
		<clipPath id="clip4_2412">
			<rect id="icons/Arrow Left 2/Line" width="25.870131" height="25.870131" fill="white" fill-opacity="0"/>
		</clipPath>
		<clipPath id="clip4_2414">
			<rect id="icons/Arrow Right 2/Line" width="25.870131" height="25.870131" transform="translate(97.012695 0.000000)" fill="white" fill-opacity="0"/>
		</clipPath>
	</defs>
	<g clip-path="url(#clip4_2412)">
		<path id="vector (Stroke)" d="M10.6807 7.8313C10.2441 7.42749 9.56152 7.45483 9.1582 7.89209L5.67578 11.6648C5.29395 12.0779 5.29395 12.7144 5.67578 13.1272L9.1582 16.8999C9.56152 17.3374 10.2441 17.3647 10.6807 16.9609C11.1182 16.5571 11.1455 15.875 10.7422 15.4377L8.92969 13.4739L19.4023 13.4739C19.998 13.4739 20.4805 12.9915 20.4805 12.396C20.4805 11.8008 19.998 11.3181 19.4023 11.3181L8.92969 11.3181L10.7422 9.35449C11.1455 8.91699 11.1182 8.23511 10.6807 7.8313Z" fill="#929292" fill-opacity="1.000000" fill-rule="evenodd"/>
	</g>
	<rect id="Frame 14" rx="1.077922" width="2.155844" height="25.870131" transform="translate(60.363281 0.000000)" fill="#E6E8EC" fill-opacity="1.000000"/>
	<g clip-path="url(#clip4_2414)">
		<path id="vector (Stroke)" d="M112.202 7.8313C112.639 7.42749 113.321 7.45483 113.725 7.89209L117.207 11.6648C117.589 12.0779 117.589 12.7144 117.207 13.1272L113.725 16.8999C113.321 17.3374 112.639 17.3647 112.202 16.9609C111.765 16.5571 111.737 15.875 112.141 15.4377L113.953 13.4739L103.48 13.4739C102.885 13.4739 102.402 12.9915 102.402 12.396C102.402 11.8008 102.885 11.3181 103.48 11.3181L113.953 11.3181L112.141 9.35449C111.737 8.91699 111.765 8.23511 112.202 7.8313Z" fill="#23262F" fill-opacity="1.000000" fill-rule="evenodd"/>
	</g>
</svg>
