<svg width="16.665039" height="20.988754" viewBox="0 0 16.665 20.9888" fill="none" xmlns="http://www.w3.org/2000/svg" xmlns:xlink="http://www.w3.org/1999/xlink">
	<desc>
			Created with Pixso.
	</desc>
	<defs/>
	<path id="Vector" d="M13.7266 0L2.93848 0C1.32227 0 0 1.31178 0 2.93842L0 18.0398C0 19.6665 1.32227 20.9888 2.93848 20.9888L13.7266 20.9888C15.3535 20.9888 16.665 19.6665 16.665 18.0398L16.665 2.93842C16.665 1.31178 15.3535 0 13.7266 0ZM4.01953 15.1434L12.6455 15.1434C13.0869 15.1434 13.4326 15.5002 13.4326 15.9305C13.4326 16.3607 13.0869 16.7176 12.6455 16.7176L4.01953 16.7176C3.58887 16.7176 3.23242 16.3607 3.23242 15.9305C3.23242 15.5002 3.58887 15.1434 4.01953 15.1434ZM3.23242 10.5363C3.23242 10.1061 3.58887 9.74927 4.01953 9.74927L12.6455 9.74927C13.0869 9.74927 13.4326 10.1061 13.4326 10.5363C13.4326 10.9771 13.0869 11.3234 12.6455 11.3234L4.01953 11.3234C3.58887 11.3234 3.23242 10.9771 3.23242 10.5363ZM12.6455 5.92932L4.01953 5.92932C3.58887 5.92932 3.23242 5.58301 3.23242 5.14224C3.23242 4.71198 3.58887 4.35516 4.01953 4.35516L12.6455 4.35516C13.0869 4.35516 13.4326 4.71198 13.4326 5.14224C13.4326 5.58301 13.0869 5.92932 12.6455 5.92932Z" fill="#000000" fill-opacity="1.000000" fill-rule="nonzero"/>
</svg>
