<svg width="24.000000" height="10.699341" viewBox="0 0 24 10.6993" fill="none" xmlns="http://www.w3.org/2000/svg" xmlns:xlink="http://www.w3.org/1999/xlink">
	<desc>
			Created with Pixso.
	</desc>
	<defs>
		<clipPath id="clip4_2136">
			<rect id="dots-vertical" width="10.699301" height="24.000000" transform="translate(24.000000 0.000000) rotate(90.000000)" fill="white" fill-opacity="0"/>
		</clipPath>
	</defs>
	<rect id="dots-vertical" width="10.699301" height="24.000000" transform="translate(24.000000 0.000000) rotate(90.000000)" fill="#FFFFFF" fill-opacity="0"/>
	<g clip-path="url(#clip4_2136)">
		<path id="Vector" d="M11 5.34973C11 5.10352 11.4473 4.90393 12 4.90393C12.5527 4.90393 13 5.10352 13 5.34973C13 5.59595 12.5527 5.79553 12 5.79553C11.4473 5.79553 11 5.59595 11 5.34973Z" stroke="#1A202C" stroke-opacity="1.000000" stroke-width="2.000000" stroke-linejoin="round"/>
		<path id="Vector" d="M4 5.34973C4 5.10352 4.44727 4.90393 5 4.90393C5.55273 4.90393 6 5.10352 6 5.34973C6 5.59595 5.55273 5.79553 5 5.79553C4.44727 5.79553 4 5.59595 4 5.34973Z" stroke="#1A202C" stroke-opacity="1.000000" stroke-width="2.000000" stroke-linejoin="round"/>
		<path id="Vector" d="M18 5.34973C18 5.10352 18.4473 4.90393 19 4.90393C19.5527 4.90393 20 5.10352 20 5.34973C20 5.59595 19.5527 5.79553 19 5.79553C18.4473 5.79553 18 5.59595 18 5.34973Z" stroke="#1A202C" stroke-opacity="1.000000" stroke-width="2.000000" stroke-linejoin="round"/>
	</g>
</svg>
