<svg width="20.463867" height="20.464050" viewBox="0 0 20.4639 20.4641" fill="none" xmlns="http://www.w3.org/2000/svg" xmlns:xlink="http://www.w3.org/1999/xlink">
	<desc>
			Created with Pixso.
	</desc>
	<defs/>
	<path id="Vector" d="M17.4629 2.99089C15.5312 1.05994 12.9609 0 10.2324 0C7.50391 0 4.93262 1.05994 3.00098 2.99089C1.05957 4.92186 0 7.493 0 10.232C0 11.5753 0.262695 12.8976 0.776367 14.1464C1.29102 15.3953 2.04688 16.5077 3.00098 17.4626C3.94629 18.4176 5.06836 19.1627 6.31738 19.677C7.56641 20.2017 8.87793 20.4641 10.2324 20.4641C11.5859 20.4641 12.8975 20.2017 14.1465 19.677C15.3955 19.1627 16.5186 18.4176 17.4629 17.4626C18.418 16.5077 19.1729 15.3953 19.6875 14.1464C20.2021 12.8976 20.4639 11.5753 20.4639 10.232C20.4639 7.493 19.4043 4.92186 17.4629 2.99089ZM11.0195 14.7341L11.0195 14.9545C11.0195 15.3848 10.6621 15.7416 10.2324 15.7416C9.80176 15.7416 9.44531 15.3848 9.44531 14.9545L9.44531 14.7236C8.52148 14.5767 7.70312 14.1779 7.17773 13.5797C6.94727 13.3069 6.92676 12.9081 7.13574 12.6142C7.3457 12.3099 7.72363 12.205 8.05957 12.3309L9.44531 12.8556L9.44531 10.9456C7.80762 10.6938 6.61133 9.63383 6.61133 8.34303C6.61133 7.04173 7.80762 5.99229 9.44531 5.72993L9.44531 5.50955C9.44531 5.06879 9.80176 4.72247 10.2324 4.72247C10.6621 4.72247 11.0195 5.06879 11.0195 5.50955L11.0195 5.72993C11.9424 5.88734 12.7607 6.28613 13.2861 6.87383C13.5166 7.14668 13.5381 7.54547 13.3281 7.84981C13.1807 8.05969 12.9395 8.18562 12.6875 8.18562C12.5928 8.18562 12.499 8.16463 12.4043 8.13315L11.0195 7.59793L11.0195 9.5079C12.6562 9.75977 13.8525 10.8197 13.8525 12.121C13.8525 13.4223 12.6562 14.4718 11.0195 14.7341Z" fill="#000000" fill-opacity="1.000000" fill-rule="nonzero"/>
</svg>
