<svg width="53.000000" height="53.000000" viewBox="0 0 53 53" fill="none" xmlns="http://www.w3.org/2000/svg" xmlns:xlink="http://www.w3.org/1999/xlink">
	<desc>
			Created with Pixso.
	</desc>
	<defs/>
	<path id="Vector" d="M46.9277 36.1279C44.9844 36.1279 44.123 35.377 42.9082 34.3169C41.5615 33.1687 39.8828 31.7112 36.7246 31.7112C33.5449 31.7112 31.8887 33.1687 30.542 34.3169C29.3271 35.377 28.4434 36.1279 26.5 36.1279C24.5791 36.1279 23.6953 35.377 22.4814 34.3169C21.1338 33.1687 19.4561 31.7112 16.2979 31.7112C13.1182 31.7112 11.4395 33.1687 10.0928 34.3169C8.87793 35.377 8.0166 36.1279 6.07324 36.1279C5.16797 36.1279 4.41699 36.8787 4.41699 37.7842C4.41699 38.7117 5.16797 39.4404 6.07324 39.4404C9.25293 39.4404 10.9092 38.0049 12.2568 36.8345C13.4707 35.7744 14.3545 35.0237 16.2979 35.0237C18.2412 35.0237 19.1025 35.7744 20.3174 36.8345C21.6641 38.0049 23.3428 39.4404 26.5 39.4404C29.6807 39.4404 31.3584 38.0049 32.7061 36.8345C33.9199 35.7744 34.7812 35.0237 36.7246 35.0237C38.6465 35.0237 39.5293 35.7744 40.7441 36.8345C42.0908 38.0049 43.7695 39.4404 46.9277 39.4404C47.833 39.4404 48.584 38.7117 48.584 37.7842C48.584 36.8787 47.833 36.1279 46.9277 36.1279Z" fill="#141416" fill-opacity="1.000000" fill-rule="nonzero"/>
	<path id="Vector" d="M46.9277 27.0308C44.9844 27.0308 44.123 26.2578 42.9082 25.2197C41.5615 24.0493 39.8828 22.614 36.7246 22.614C33.5449 22.614 31.8887 24.0493 30.542 25.2197C29.3271 26.2578 28.4434 27.0308 26.5 27.0308C24.5791 27.0308 23.6953 26.2578 22.4814 25.2197C21.1338 24.0493 19.4561 22.614 16.2979 22.614C13.1182 22.614 11.4395 24.0493 10.0928 25.2197C8.87793 26.2578 8.0166 27.0308 6.07324 27.0308C5.16797 27.0308 4.41699 27.7595 4.41699 28.687C4.41699 29.5923 5.16797 30.3433 6.07324 30.3433C9.25293 30.3433 10.9092 28.8857 12.2568 27.7153C13.4707 26.6772 14.3545 25.9265 16.2979 25.9265C18.2412 25.9265 19.1025 26.6772 20.3174 27.7153C21.6641 28.8857 23.3428 30.3433 26.5 30.3433C29.6807 30.3433 31.3584 28.8857 32.7061 27.7153C33.9199 26.6772 34.7812 25.9265 36.7246 25.9265C38.6465 25.9265 39.5293 26.6772 40.7441 27.7153C42.0908 28.8857 43.7695 30.3433 46.9277 30.3433C47.833 30.3433 48.584 29.5923 48.584 28.687C48.584 27.7595 47.833 27.0308 46.9277 27.0308Z" fill="#141416" fill-opacity="1.000000" fill-rule="nonzero"/>
	<path id="Vector" d="M6.07324 21.2886C9.25293 21.2886 10.9092 19.8311 12.2568 18.6826C13.4707 17.6226 14.3545 16.8718 16.2979 16.8718C18.2412 16.8718 19.1025 17.6226 20.3174 18.6826C21.6641 19.8311 23.3428 21.2886 26.5 21.2886C29.6807 21.2886 31.3584 19.8311 32.7061 18.6826C33.9199 17.6226 34.7812 16.8718 36.7246 16.8718C38.6465 16.8718 39.5293 17.6226 40.7441 18.6826C42.0908 19.8311 43.7695 21.2886 46.9277 21.2886C47.833 21.2886 48.584 20.5376 48.584 19.6323C48.584 18.7048 47.833 17.9761 46.9277 17.9761C44.9844 17.9761 44.123 17.2251 42.9082 16.165C41.5615 14.9946 39.8828 13.5593 36.7246 13.5593C33.5449 13.5593 31.8887 14.9946 30.542 16.165C29.3271 17.2251 28.4434 17.9761 26.5 17.9761C24.5791 17.9761 23.6953 17.2251 22.4814 16.165C21.1338 14.9946 19.4561 13.5593 16.2979 13.5593C13.1182 13.5593 11.4395 14.9946 10.0928 16.165C8.87793 17.2251 8.0166 17.9761 6.07324 17.9761C5.16797 17.9761 4.41699 18.7048 4.41699 19.6323C4.41699 20.5376 5.16797 21.2886 6.07324 21.2886Z" fill="#141416" fill-opacity="1.000000" fill-rule="nonzero"/>
</svg>
