<svg width="198.876953" height="65.000000" viewBox="0 0 198.877 65" fill="none" xmlns="http://www.w3.org/2000/svg" xmlns:xlink="http://www.w3.org/1999/xlink">
	<desc>
			Created with Pixso.
	</desc>
	<defs/>
	<path id="DiveSea" d="M84.2423 22.9136Q87.537 22.9136 90.0353 24.1993Q92.5337 25.4851 93.8925 27.8666Q95.2513 30.2481 95.2513 33.3893Q95.2513 36.5306 93.8925 38.8829Q92.5337 41.2279 90.0353 42.5136Q87.537 43.7993 84.2423 43.7993L76.9443 43.7993L76.9443 22.9136L84.2423 22.9136ZM84.0962 40.2417Q87.3835 40.2417 89.1806 38.4446Q90.9777 36.6475 90.9777 33.3893Q90.9777 30.1239 89.1806 28.283Q87.3835 26.442 84.0962 26.442L81.1302 26.442L81.1302 40.2417L84.0962 40.2417ZM100.517 25.244Q99.4141 25.244 98.6762 24.5427Q97.9457 23.8414 97.9457 22.7967Q97.9457 21.7448 98.6762 21.0435Q99.4141 20.3422 100.517 20.3422Q101.628 20.3422 102.358 21.0435Q103.096 21.7448 103.096 22.7967Q103.096 23.8414 102.358 24.5427Q101.628 25.244 100.517 25.244ZM102.585 27.2237L102.585 43.7993L98.3986 43.7993L98.3986 27.2237L102.585 27.2237ZM113.628 39.9421L117.814 27.2237L122.277 27.2237L116.141 43.7993L111.056 43.7993L104.949 27.2237L109.435 27.2237L113.628 39.9421ZM140.047 35.1499Q140.047 36.0484 139.93 36.7644L127.811 36.7644Q127.957 38.5615 129.06 39.5842Q130.171 40.5996 131.792 40.5996Q134.123 40.5996 135.109 38.5907L139.631 38.5907Q138.908 40.9868 136.869 42.5282Q134.839 44.0696 131.88 44.0696Q129.484 44.0696 127.585 43.0103Q125.685 41.9438 124.619 40.0006Q123.559 38.0574 123.559 35.5079Q123.559 32.9364 124.604 30.9932Q125.656 29.05 127.541 28.0054Q129.425 26.9534 131.88 26.9534Q134.24 26.9534 136.11 27.9688Q137.98 28.9843 139.01 30.8544Q140.047 32.7246 140.047 35.1499ZM135.708 33.9518Q135.679 32.3374 134.539 31.3658Q133.407 30.3942 131.756 30.3942Q130.2 30.3942 129.141 31.3366Q128.081 32.2789 127.84 33.9518L135.708 33.9518ZM150.313 44.0112Q148.129 44.0112 146.375 43.266Q144.629 42.5136 143.607 41.111Q142.591 39.7011 142.562 37.7871L147.047 37.7871Q147.142 39.0728 147.961 39.8253Q148.786 40.5704 150.218 40.5704Q151.686 40.5704 152.526 39.8691Q153.366 39.1605 153.366 38.0209Q153.366 37.0931 152.797 36.5014Q152.227 35.9023 151.372 35.559Q150.517 35.2083 149.027 34.7919Q146.989 34.1929 145.718 33.6085Q144.447 33.0241 143.534 31.8479Q142.62 30.6645 142.62 28.6921Q142.62 26.8365 143.548 25.4631Q144.476 24.0824 146.149 23.3519Q147.829 22.6141 149.984 22.6141Q153.213 22.6141 155.229 24.1847Q157.253 25.7553 157.465 28.5679L152.855 28.5679Q152.797 27.494 151.942 26.7927Q151.087 26.0841 149.685 26.0841Q148.457 26.0841 147.719 26.7123Q146.989 27.3406 146.989 28.5386Q146.989 29.3787 147.544 29.9339Q148.099 30.4818 148.918 30.8252Q149.743 31.1685 151.241 31.6215Q153.271 32.2205 154.557 32.8195Q155.85 33.4186 156.771 34.6166Q157.698 35.8074 157.698 37.7579Q157.698 39.4308 156.829 40.8699Q155.967 42.3017 154.287 43.1565Q152.614 44.0112 150.313 44.0112ZM176.732 35.1499Q176.732 36.0484 176.615 36.7644L164.496 36.7644Q164.642 38.5615 165.745 39.5842Q166.855 40.5996 168.477 40.5996Q170.807 40.5996 171.794 38.5907L176.316 38.5907Q175.592 40.9868 173.554 42.5282Q171.523 44.0696 168.565 44.0696Q166.169 44.0696 164.269 43.0103Q162.37 41.9438 161.303 40.0006Q160.244 38.0574 160.244 35.5079Q160.244 32.9364 161.289 30.9932Q162.341 29.05 164.225 28.0054Q166.11 26.9534 168.565 26.9534Q170.924 26.9534 172.794 27.9688Q174.665 28.9843 175.695 30.8544Q176.732 32.7246 176.732 35.1499ZM172.393 33.9518Q172.363 32.3374 171.224 31.3658Q170.092 30.3942 168.441 30.3942Q166.885 30.3942 165.825 31.3366Q164.766 32.2789 164.525 33.9518L172.393 33.9518ZM178.706 35.4494Q178.706 32.9364 179.707 30.9932Q180.715 29.05 182.432 28.0054Q184.156 26.9534 186.274 26.9534Q188.13 26.9534 189.518 27.7058Q190.913 28.451 191.753 29.5833L191.753 27.2237L195.976 27.2237L195.976 43.7993L191.753 43.7993L191.753 41.374Q190.942 42.5428 189.518 43.3099Q188.101 44.0696 186.245 44.0696Q184.156 44.0696 182.432 42.9957Q180.715 41.9146 179.707 39.9568Q178.706 37.9916 178.706 35.4494ZM191.753 35.5079Q191.753 33.9884 191.154 32.8999Q190.555 31.8041 189.54 31.2197Q188.524 30.6353 187.356 30.6353Q186.187 30.6353 185.201 31.2051Q184.214 31.7676 183.601 32.8634Q182.987 33.9518 182.987 35.4494Q182.987 36.947 183.601 38.072Q184.214 39.1897 185.215 39.7887Q186.216 40.3878 187.356 40.3878Q188.524 40.3878 189.54 39.8033Q190.555 39.2189 191.154 38.1304Q191.753 37.0347 191.753 35.5079Z" fill="#FFFFFF" fill-opacity="1.000000" fill-rule="evenodd"/>
	<path id="Vector" d="M57.5518 44.3079C55.168 44.3079 54.1123 43.387 52.6221 42.0869C50.9697 40.6787 48.9121 38.8911 45.0391 38.8911C41.1387 38.8911 39.1074 40.6787 37.4551 42.0869C35.9658 43.387 34.8828 44.3079 32.499 44.3079C30.1436 44.3079 29.0596 43.387 27.5703 42.0869C25.918 40.6787 23.8594 38.8911 19.9873 38.8911C16.0869 38.8911 14.0283 40.6787 12.376 42.0869C10.8867 43.387 9.83105 44.3079 7.44727 44.3079C6.33691 44.3079 5.41602 45.2285 5.41602 46.3391C5.41602 47.4766 6.33691 48.3704 7.44727 48.3704C11.3477 48.3704 13.3789 46.6099 15.0303 45.1746C16.5205 43.8745 17.6035 42.9536 19.9873 42.9536C22.3701 42.9536 23.4268 43.8745 24.916 45.1746C26.5684 46.6099 28.626 48.3704 32.499 48.3704C36.3994 48.3704 38.458 46.6099 40.1094 45.1746C41.5996 43.8745 42.6553 42.9536 45.0391 42.9536C47.3955 42.9536 48.4785 43.8745 49.9678 45.1746C51.6201 46.6099 53.6787 48.3704 57.5518 48.3704C58.6621 48.3704 59.583 47.4766 59.583 46.3391C59.583 45.2285 58.6621 44.3079 57.5518 44.3079Z" fill="#FFFFFF" fill-opacity="1.000000" fill-rule="nonzero"/>
	<path id="Vector" d="M57.5518 33.1506C55.168 33.1506 54.1123 32.2026 52.6221 30.9297C50.9697 29.4944 48.9121 27.7339 45.0391 27.7339C41.1387 27.7339 39.1074 29.4944 37.4551 30.9297C35.9658 32.2026 34.8828 33.1506 32.499 33.1506C30.1436 33.1506 29.0596 32.2026 27.5703 30.9297C25.918 29.4944 23.8594 27.7339 19.9873 27.7339C16.0869 27.7339 14.0283 29.4944 12.376 30.9297C10.8867 32.2026 9.83105 33.1506 7.44727 33.1506C6.33691 33.1506 5.41602 34.0442 5.41602 35.1819C5.41602 36.2922 6.33691 37.2131 7.44727 37.2131C11.3477 37.2131 13.3789 35.4255 15.0303 33.9902C16.5205 32.7173 17.6035 31.7964 19.9873 31.7964C22.3701 31.7964 23.4268 32.7173 24.916 33.9902C26.5684 35.4255 28.626 37.2131 32.499 37.2131C36.3994 37.2131 38.458 35.4255 40.1094 33.9902C41.5996 32.7173 42.6553 31.7964 45.0391 31.7964C47.3955 31.7964 48.4785 32.7173 49.9678 33.9902C51.6201 35.4255 53.6787 37.2131 57.5518 37.2131C58.6621 37.2131 59.583 36.2922 59.583 35.1819C59.583 34.0442 58.6621 33.1506 57.5518 33.1506Z" fill="#FFFFFF" fill-opacity="1.000000" fill-rule="nonzero"/>
	<path id="Vector" d="M7.44727 26.1086C11.3477 26.1086 13.3789 24.321 15.0303 22.9128C16.5205 21.6128 17.6035 20.6919 19.9873 20.6919C22.3701 20.6919 23.4268 21.6128 24.916 22.9128C26.5684 24.321 28.626 26.1086 32.499 26.1086C36.3994 26.1086 38.458 24.321 40.1094 22.9128C41.5996 21.6128 42.6553 20.6919 45.0391 20.6919C47.3955 20.6919 48.4785 21.6128 49.9678 22.9128C51.6201 24.321 53.6787 26.1086 57.5518 26.1086C58.6621 26.1086 59.583 25.1877 59.583 24.0774C59.583 22.9397 58.6621 22.0461 57.5518 22.0461C55.168 22.0461 54.1123 21.1252 52.6221 19.8252C50.9697 18.3899 48.9121 16.6294 45.0391 16.6294C41.1387 16.6294 39.1074 18.3899 37.4551 19.8252C35.9658 21.1252 34.8828 22.0461 32.499 22.0461C30.1436 22.0461 29.0596 21.1252 27.5703 19.8252C25.918 18.3899 23.8594 16.6294 19.9873 16.6294C16.0869 16.6294 14.0283 18.3899 12.376 19.8252C10.8867 21.1252 9.83105 22.0461 7.44727 22.0461C6.33691 22.0461 5.41602 22.9397 5.41602 24.0774C5.41602 25.1877 6.33691 26.1086 7.44727 26.1086Z" fill="#FFFFFF" fill-opacity="1.000000" fill-rule="nonzero"/>
</svg>
