<svg width="9.883789" height="21.337158" viewBox="0 0 9.88379 21.3372" fill="none" xmlns="http://www.w3.org/2000/svg" xmlns:xlink="http://www.w3.org/1999/xlink">
	<desc>
			Created with Pixso.
	</desc>
	<defs/>
	<mask id="mask_4_1339" fill="white">
		<path id="Path 13" d="M9.51758 10.6685L6.53711 10.6685L6.53711 21.3372L2.0918 21.3372L2.0918 10.6685L0 10.6685L0 6.90308L2.0918 6.90308L2.0918 4.44531C2.0918 2.71948 2.92871 0 6.53711 0L9.83203 0L9.83203 3.66089L7.47852 3.66089C7.1123 3.66089 6.53711 3.86987 6.53711 4.70679L6.53711 6.90308L9.88379 6.90308L9.51758 10.6685Z" clip-rule="evenodd" fill="" fill-opacity="1.000000" fill-rule="evenodd"/>
	</mask>
	<path id="Path 13" d="M9.51758 10.6685L6.53711 10.6685L6.53711 21.3372L2.0918 21.3372L2.0918 10.6685L0 10.6685L0 6.90308L2.0918 6.90308L2.0918 4.44531C2.0918 2.71948 2.92871 0 6.53711 0L9.83203 0L9.83203 3.66089L7.47852 3.66089C7.1123 3.66089 6.53711 3.86987 6.53711 4.70679L6.53711 6.90308L9.88379 6.90308L9.51758 10.6685Z" clip-rule="evenodd" fill="#535353" fill-opacity="1.000000" fill-rule="evenodd" mask="url(#mask_4_1339)"/>
	<path id="Path 13" d="" fill="#707070" fill-opacity="0.000000" fill-rule="nonzero"/>
</svg>
