<svg width="21.337891" height="20.359375" viewBox="0 0 21.3379 20.3594" fill="none" xmlns="http://www.w3.org/2000/svg" xmlns:xlink="http://www.w3.org/1999/xlink">
	<desc>
			Created with Pixso.
	</desc>
	<defs/>
	<mask id="mask_4_1350" fill="white">
		<path id="Path 7" d="M0 2.35791C0 1.03516 1.03516 0 2.58789 0C4.14062 0 5.11816 1.03516 5.17578 2.35791C5.17578 3.68066 4.19824 4.71606 2.58789 4.71606L2.53027 4.71606C0.977539 4.71606 0 3.68066 0 2.35791ZM21.3379 12.4802L21.3379 20.3591L16.7363 20.3591L16.7363 12.9978C16.7363 11.1572 16.1035 9.89209 14.4365 9.89209C13.1709 9.89209 12.4229 10.7546 12.0781 11.5598C11.9629 11.8474 11.9053 12.25 11.9053 12.6526L11.9053 20.3591L7.30469 20.3591C7.30469 20.3591 7.3623 7.87915 7.30469 6.61377L11.9053 6.61377L11.9053 8.56934C11.9053 8.56934 11.9053 8.62671 11.8477 8.62671L11.9053 8.62671L11.9053 8.56934C12.5381 7.64917 13.5732 6.2688 16.0469 6.2688C19.0371 6.2688 21.3379 8.28174 21.3379 12.4802ZM0.230469 20.3594L4.77441 20.3594L4.77441 6.61401L0.230469 6.61401L0.230469 20.3594Z" clip-rule="evenodd" fill="" fill-opacity="1.000000" fill-rule="evenodd"/>
	</mask>
	<path id="Path 7" d="M0 2.35791C0 1.03516 1.03516 0 2.58789 0C4.14062 0 5.11816 1.03516 5.17578 2.35791C5.17578 3.68066 4.19824 4.71606 2.58789 4.71606L2.53027 4.71606C0.977539 4.71606 0 3.68066 0 2.35791ZM21.3379 12.4802L21.3379 20.3591L16.7363 20.3591L16.7363 12.9978C16.7363 11.1572 16.1035 9.89209 14.4365 9.89209C13.1709 9.89209 12.4229 10.7546 12.0781 11.5598C11.9629 11.8474 11.9053 12.25 11.9053 12.6526L11.9053 20.3591L7.30469 20.3591C7.30469 20.3591 7.3623 7.87915 7.30469 6.61377L11.9053 6.61377L11.9053 8.56934C11.9053 8.56934 11.9053 8.62671 11.8477 8.62671L11.9053 8.62671L11.9053 8.56934C12.5381 7.64917 13.5732 6.2688 16.0469 6.2688C19.0371 6.2688 21.3379 8.28174 21.3379 12.4802ZM0.230469 20.3594L4.77441 20.3594L4.77441 6.61401L0.230469 6.61401L0.230469 20.3594Z" clip-rule="evenodd" fill="#535353" fill-opacity="1.000000" fill-rule="evenodd" mask="url(#mask_4_1350)"/>
	<path id="Path 7" d="" fill="#707070" fill-opacity="0.000000" fill-rule="nonzero"/>
</svg>
