<svg width="21.336914" height="17.370850" viewBox="0 0 21.3369 17.3708" fill="none" xmlns="http://www.w3.org/2000/svg" xmlns:xlink="http://www.w3.org/1999/xlink">
	<desc>
			Created with Pixso.
	</desc>
	<defs/>
	<mask id="mask_4_1355" fill="white">
		<path id="Path 6" d="M21.3369 2.05835C20.5342 2.40991 19.7305 2.66089 18.8271 2.76123C19.7305 2.20898 20.4336 1.35547 20.7344 0.351318C19.8809 0.853516 18.9277 1.20483 17.9736 1.40576C17.1699 0.552246 16.0156 0 14.7598 0C12.3506 0 10.3926 1.95801 10.3926 4.36768C10.3926 4.71924 10.4424 5.07056 10.4932 5.37183C6.82812 5.17114 3.61523 3.46411 1.45605 0.803223C1.05469 1.45581 0.853516 2.20898 0.853516 3.01221C0.853516 4.51831 1.60645 5.87402 2.81152 6.67725C2.1084 6.67725 1.40527 6.47632 0.803711 6.125L0.803711 6.17505C0.803711 8.28369 2.30957 10.0911 4.31738 10.4927C3.96582 10.5933 3.56445 10.6433 3.16309 10.6433C2.86133 10.6433 2.61035 10.5933 2.35938 10.543C2.91211 12.3 4.51855 13.5552 6.47656 13.6055C4.9707 14.76 3.1123 15.4629 1.05469 15.4629C0.703125 15.4629 0.351562 15.4629 0 15.4128C1.95801 16.668 4.2168 17.3708 6.72754 17.3708C14.8105 17.3708 19.1787 10.6936 19.1787 4.92017L19.1787 4.36768C20.0322 3.71509 20.7852 2.91187 21.3369 2.05835Z" clip-rule="evenodd" fill="" fill-opacity="1.000000" fill-rule="evenodd"/>
	</mask>
	<path id="Path 6" d="M21.3369 2.05835C20.5342 2.40991 19.7305 2.66089 18.8271 2.76123C19.7305 2.20898 20.4336 1.35547 20.7344 0.351318C19.8809 0.853516 18.9277 1.20483 17.9736 1.40576C17.1699 0.552246 16.0156 0 14.7598 0C12.3506 0 10.3926 1.95801 10.3926 4.36768C10.3926 4.71924 10.4424 5.07056 10.4932 5.37183C6.82812 5.17114 3.61523 3.46411 1.45605 0.803223C1.05469 1.45581 0.853516 2.20898 0.853516 3.01221C0.853516 4.51831 1.60645 5.87402 2.81152 6.67725C2.1084 6.67725 1.40527 6.47632 0.803711 6.125L0.803711 6.17505C0.803711 8.28369 2.30957 10.0911 4.31738 10.4927C3.96582 10.5933 3.56445 10.6433 3.16309 10.6433C2.86133 10.6433 2.61035 10.5933 2.35938 10.543C2.91211 12.3 4.51855 13.5552 6.47656 13.6055C4.9707 14.76 3.1123 15.4629 1.05469 15.4629C0.703125 15.4629 0.351562 15.4629 0 15.4128C1.95801 16.668 4.2168 17.3708 6.72754 17.3708C14.8105 17.3708 19.1787 10.6936 19.1787 4.92017L19.1787 4.36768C20.0322 3.71509 20.7852 2.91187 21.3369 2.05835Z" clip-rule="evenodd" fill="#FFFFFF" fill-opacity="1.000000" fill-rule="evenodd" mask="url(#mask_4_1355)"/>
	<path id="Path 6" d="" fill="#707070" fill-opacity="0.000000" fill-rule="nonzero"/>
</svg>
