<svg width="22.073730" height="22.073853" viewBox="0 0 22.0737 22.0739" fill="none" xmlns="http://www.w3.org/2000/svg" xmlns:xlink="http://www.w3.org/1999/xlink">
	<desc>
			Created with Pixso.
	</desc>
	<defs/>
	<path id="Vector" d="M0 2.75928C0 2.02734 0.28418 1.32568 0.790039 0.808105C1.29639 0.290771 1.98242 0 2.69775 0L15.9424 0C16.6577 0 17.3438 0.290771 17.8501 0.808105C18.356 1.32568 18.6401 2.02734 18.6401 2.75928L18.6401 4.02148C19.5713 4.08508 20.4443 4.5083 21.0815 5.20544C21.7192 5.90259 22.0737 6.82141 22.0737 7.776L22.0737 18.3113C22.0737 19.3091 21.686 20.2661 20.9961 20.9718C20.3062 21.6774 19.3706 22.0739 18.395 22.0739L3.68311 22.0739C2.70703 22.0739 1.77148 21.6774 1.08154 20.9718C0.391602 20.2661 0.00390625 19.3091 0.00390625 18.3113L0.00390625 7.776L0 7.776L0 3.01001L0.0107422 3.01001C0.00341797 2.92664 0 2.84302 0 2.75928ZM17.1685 2.75928C17.1685 2.06689 16.6191 1.50513 15.9424 1.50513L2.69775 1.50513C2.37256 1.50513 2.06055 1.63721 1.83057 1.87231C1.60059 2.10767 1.47168 2.42651 1.47168 2.75928C1.47168 3.09192 1.60059 3.41089 1.83057 3.64612C2.06055 3.88123 2.37256 4.01343 2.69775 4.01343L17.1685 4.01343L17.1685 2.75928ZM15.4517 13.0436C15.2563 13.0436 15.0693 13.1229 14.9312 13.264C14.7935 13.4052 14.7158 13.5966 14.7158 13.7961C14.7158 13.9957 14.7935 14.1871 14.9312 14.3282C15.0693 14.4694 15.2563 14.5487 15.4517 14.5487L17.9043 14.5487C18.0996 14.5487 18.2866 14.4694 18.4248 14.3282C18.5625 14.1871 18.6401 13.9957 18.6401 13.7961C18.6401 13.5966 18.5625 13.4052 18.4248 13.264C18.2866 13.1229 18.0996 13.0436 17.9043 13.0436L15.4517 13.0436Z" fill="#FFFFFF" fill-opacity="1.000000" fill-rule="nonzero"/>
</svg>
