<svg width="13.428223" height="12.029663" viewBox="0 0 13.4282 12.0297" fill="none" xmlns="http://www.w3.org/2000/svg" xmlns:xlink="http://www.w3.org/1999/xlink">
	<desc>
			Created with Pixso.
	</desc>
	<defs/>
	<path id="Vector" d="M6.71484 0.918701C6.5752 0.805176 6.42725 0.70105 6.27197 0.606201C5.62207 0.209839 4.87451 0 4.1084 0C3.55615 0 3.02148 0.105713 2.5166 0.315552C2.02832 0.517578 1.58838 0.808228 1.21094 1.17822C0.834473 1.54529 0.53418 1.98254 0.32666 2.46521C0.110352 2.96729 0 3.50049 0 4.04919C0 4.56677 0.105469 5.10608 0.31543 5.65479C0.491211 6.11328 0.743164 6.58899 1.06494 7.06921C1.57471 7.82935 2.27539 8.62207 3.146 9.42566C4.58838 10.7578 6.01709 11.678 6.07764 11.7153L6.4458 11.9515C6.60938 12.0557 6.81885 12.0557 6.98242 11.9515L7.35059 11.7153C7.41113 11.6764 8.83789 10.7578 10.2822 9.42566C11.1523 8.62207 11.8535 7.82935 12.3633 7.06921C12.6851 6.58899 12.9385 6.11328 13.1128 5.65479C13.3223 5.10608 13.4282 4.56677 13.4282 4.04919C13.4297 3.50049 13.3193 2.96729 13.1035 2.46521C12.895 1.98279 12.5947 1.54565 12.2188 1.17822C11.8428 0.809692 11.3999 0.516846 10.9131 0.315552C10.4087 0.105957 9.86768 -0.0012207 9.32178 0C8.55518 0 7.80762 0.209839 7.15771 0.606201C7.00244 0.70105 6.85498 0.805176 6.71484 0.918701ZM10.8193 1.87671Q11.0322 2.01733 11.2178 2.19922L11.2192 2.20044Q11.4116 2.38892 11.5596 2.60791Q11.6934 2.80664 11.79 3.0304Q11.895 3.2749 11.9473 3.53015Q11.999 3.7843 11.9985 4.04919Q11.9985 4.56567 11.7759 5.14734Q11.5742 5.6781 11.1758 6.27283Q10.5034 7.27527 9.3125 8.37476Q8.46436 9.15723 7.4502 9.90393Q7.02686 10.2153 6.71387 10.4233Q6.6665 10.3914 6.60156 10.3472Q6.30176 10.1431 5.97754 9.90454Q4.96436 9.15845 4.11572 8.37512Q2.9248 7.27527 2.25244 6.27344Q1.85791 5.68433 1.65088 5.14404Q1.42969 4.56567 1.42969 4.04919Q1.42969 3.78528 1.48145 3.5321Q1.53418 3.27588 1.63965 3.03052Q1.73389 2.81165 1.86426 2.61658Q2.01416 2.39233 2.21143 2.19971Q2.39307 2.02148 2.60156 1.88269Q2.81885 1.73779 3.06494 1.63599Q3.25635 1.5564 3.45557 1.50757Q3.77246 1.42981 4.1084 1.42981Q4.5127 1.42981 4.88477 1.53992Q5.21924 1.63879 5.52734 1.8269Q5.67871 1.91919 5.81396 2.02905L6.71484 2.75964L7.61572 2.02905Q7.75098 1.91919 7.90234 1.82678Q8.20117 1.64465 8.5249 1.54614Q8.90723 1.42981 9.32471 1.42981Q9.58203 1.4292 9.83057 1.47607Q10.104 1.52771 10.3667 1.63672Q10.6064 1.73608 10.8193 1.87671Z" fill="#888888" fill-opacity="1.000000" fill-rule="evenodd"/>
</svg>
