<svg width="13.769043" height="13.769287" viewBox="0 0 13.769 13.7693" fill="none" xmlns="http://www.w3.org/2000/svg" xmlns:xlink="http://www.w3.org/1999/xlink">
	<desc>
			Created with Pixso.
	</desc>
	<defs/>
	<path id="Vector" d="M6.88477 0C3.08252 0 0 3.0824 0 6.88464C0 10.6868 3.08252 13.7693 6.88477 13.7693C10.687 13.7693 13.769 10.6868 13.769 6.88464C13.769 3.0824 10.687 0 6.88477 0ZM9.86865 5.72046C9.92383 5.65771 9.96533 5.58447 9.9917 5.50525C10.0181 5.42603 10.0283 5.34241 10.0215 5.25916C10.0151 5.17603 9.99219 5.09497 9.95361 5.02087C9.91553 4.94678 9.8623 4.88098 9.79834 4.82764C9.73438 4.77417 9.66016 4.73413 9.58008 4.70972C9.50049 4.68542 9.4165 4.67725 9.3335 4.68579C9.25049 4.69434 9.16992 4.71948 9.09717 4.75952C9.02393 4.79968 8.95947 4.854 8.90723 4.91943L6.21631 8.14832L4.82373 6.755C4.70557 6.64111 4.54736 6.578 4.3833 6.57935C4.21924 6.58081 4.0625 6.64661 3.94629 6.7627C3.83008 6.87878 3.76416 7.03577 3.76318 7.19983C3.76172 7.36389 3.82471 7.52197 3.93848 7.64001L5.81641 9.5177C5.87793 9.5791 5.95117 9.62708 6.03223 9.65857C6.11328 9.68994 6.2002 9.7041 6.28711 9.7002C6.37402 9.69629 6.45898 9.67432 6.53711 9.63562C6.61475 9.59692 6.68359 9.54248 6.73926 9.47571L9.86865 5.72046Z" fill="#007AFF" fill-opacity="1.000000" fill-rule="evenodd"/>
</svg>
