<svg width="20.988281" height="20.988770" viewBox="0 0 20.9883 20.9888" fill="none" xmlns="http://www.w3.org/2000/svg" xmlns:xlink="http://www.w3.org/1999/xlink">
	<desc>
			Created with Pixso.
	</desc>
	<defs/>
	<path id="Vector" d="M16.9697 0L4.01953 0C1.80469 0 0 1.80504 0 4.01935L0 16.9694C0 19.1837 1.80469 20.9888 4.01953 20.9888L16.9697 20.9888C18.8799 20.9888 20.4746 19.6455 20.8838 17.8614C20.9473 17.746 20.9883 17.6201 20.9883 17.4836L20.9883 4.01935C20.9883 1.80504 19.1836 0 16.9697 0ZM17.7568 11.5753C17.7568 12.0056 17.3994 12.3624 16.9697 12.3624C16.5283 12.3624 16.1826 12.0056 16.1826 11.5753L16.1826 9.41347C16.1826 8.98318 16.5283 8.62639 16.9697 8.62639C17.3994 8.62639 17.7568 8.98318 17.7568 9.41347L17.7568 11.5753ZM3.23242 11.5753L3.23242 9.41347C3.23242 8.98318 3.58887 8.62639 4.01953 8.62639C4.45996 8.62639 4.80664 8.98318 4.80664 9.41347L4.80664 11.5753C4.80664 12.0056 4.45996 12.3624 4.01953 12.3624C3.58887 12.3624 3.23242 12.0056 3.23242 11.5753ZM14.5137 7.26212L14.5137 13.7267C14.5137 14.1674 14.167 14.5137 13.7266 14.5137C13.2959 14.5137 12.9395 14.1674 12.9395 13.7267L12.9395 7.26212C12.9395 6.82135 13.2959 6.47504 13.7266 6.47504C14.167 6.47504 14.5137 6.82135 14.5137 7.26212ZM11.2812 5.10027L11.2812 15.8885C11.2812 16.3188 10.9248 16.6756 10.4941 16.6756C10.0645 16.6756 9.70703 16.3188 9.70703 15.8885L9.70703 5.10027C9.70703 4.67 10.0645 4.31319 10.4941 4.31319C10.9248 4.31319 11.2812 4.67 11.2812 5.10027ZM8.04883 7.26212L8.04883 13.7267C8.04883 14.1674 7.69238 14.5137 7.26172 14.5137C6.82129 14.5137 6.47461 14.1674 6.47461 13.7267L6.47461 7.26212C6.47461 6.82135 6.82129 6.47504 7.26172 6.47504C7.69238 6.47504 8.04883 6.82135 8.04883 7.26212Z" fill="#000000" fill-opacity="1.000000" fill-rule="nonzero"/>
</svg>
